# xmcd
#
# Track frame offsets:
#	150
#	16800
#	30975
#	48075
#	65175
#	78450
#	95325
#	112950
#	126825
#	145650
#	162300
#	176475
#	193575
#	210675
#	223950
#	240825
#	258450
#	272325
#
# Disc length: 3885 seconds
#
# Revision: 1
# Processed by: cddbd v1.5.1PL0 Copyright (c) Steve Scherf et al.
# Submitted via: audiograbber 1.83.01
#
DISCID=f20f2b12
DTITLE=Various Artist - CHM0009
DYEAR=2000
DGENRE=karaoke
TTITLE0=Tim Mcgraw - My Next Thirty Years
TTITLE1=Steve Wariner and Garth Brooks - Katie Wants A Fast One
TTITLE2=Billy Raye Cyrus - You Won't Be Lonely Now
TTITLE3=Collin Raye and Bobby Eakes - Tired Of Loving This Way
TTITLE4=Aaron Tippin - Kiss This
TTITLE5=Brad Paisley - We Danced
TTITLE6=Phil Vassar - Just Another Day In Paradise
TTITLE7=Kenny Rogers - He Will, She Knows
TTITLE8=Billy Gilman - One Voice
TTITLE9=Vocals
TTITLE10=vocals
TTITLE11=vocals
TTITLE12=vocals
TTITLE13=vocals
TTITLE14=vocals
TTITLE15=vocals
TTITLE16=vocals
TTITLE17=vocals
EXTD=
EXTT0=
EXTT1=
EXTT2=
EXTT3=
EXTT4=
EXTT5=
EXTT6=
EXTT7=
EXTT8=
EXTT9=
EXTT10=
EXTT11=
EXTT12=
EXTT13=
EXTT14=
EXTT15=
EXTT16=
EXTT17=
PLAYORDER=
